<svg width="400" height="600" xmlns="http://www.w3.org/2000/svg">
 <g id="Layer_1">
  <title>Layer 1</title>
  <rect transform="rotate(2 215.356 315.429)" rx="13" id="svg_29" height="453" width="300" y="88.92889" x="65.35647" stroke="#e2e8f0" fill="none"/>
  <rect transform="rotate(2 203.69 305.762)" rx="13" id="svg_28" height="453" width="300" y="79.26231" x="53.68991" stroke="#e2e8f0" fill="none"/>
  <rect transform="rotate(2 192.69 294.429)" fill-opacity="0.4" rx="13" id="svg_1" height="453" width="300" y="67.92907" x="42.69" stroke="#e2e8f0" fill="#e2e8f0"/>
  <rect transform="rotate(2 187.753 296.429)" fill-opacity="0.5" rx="6" id="svg_2" height="170" width="170" y="211.42915" x="102.75309" fill="#e2e8f0"/>
  <rect transform="rotate(2 136.015 241.505)" stroke-width="10" id="svg_3" height="40" width="40" y="221.50452" x="116.01537" stroke="#e2e8f0" fill="none"/>
  <rect transform="rotate(2 241.348 245.838)" stroke-width="10" id="svg_4" height="40" width="40" y="225.83781" x="221.34776" stroke="#e2e8f0" fill="none"/>
  <rect transform="rotate(2 133.015 348.17)" stroke-width="10" id="svg_5" height="40" width="40" y="328.17023" x="113.0154" stroke="#e2e8f0" fill="none"/>
  <rect transform="rotate(2 238.681 351.837)" stroke-width="10" id="svg_6" height="40" width="40" y="331.83687" x="218.68112" stroke="#e2e8f0" fill="none"/>
  <line id="svg_7" y2="236.17105" x2="171.01488" y1="217.50455" x1="171.68154" stroke-width="10" stroke="#e2e8f0" fill="none"/>
  <line id="svg_9" y2="248.50428" x2="192.34802" y1="247.50428" x1="165.01493" stroke-width="10" stroke="#e2e8f0" fill="none"/>
  <line id="svg_10" y2="270.50408" x2="202.68126" y1="219.1712" x1="204.68124" stroke-width="10" stroke="#e2e8f0" fill="none"/>
  <line id="svg_11" y2="230.50444" x2="186.6814" y1="221.17119" x1="187.01473" stroke-width="10" stroke="#e2e8f0" fill="none"/>
  <line id="svg_12" y2="287.17059" x2="169.0149" y1="268.5041" x1="169.68156" stroke-width="10" stroke="#e2e8f0" fill="none"/>
  <line id="svg_13" y2="299.50382" x2="190.34804" y1="298.50383" x1="163.01495" stroke-width="10" stroke="#e2e8f0" fill="none"/>
  <line id="svg_14" y2="321.50362" x2="200.68128" y1="270.17075" x1="202.68126" stroke-width="10" stroke="#e2e8f0" fill="none"/>
  <line id="svg_15" y2="281.50398" x2="184.68142" y1="272.17073" x1="185.01475" stroke-width="10" stroke="#e2e8f0" fill="none"/>
  <line id="svg_16" y2="287.17059" x2="117.68202" y1="268.5041" x1="118.34868" stroke-width="10" stroke="#e2e8f0" fill="none"/>
  <line id="svg_17" y2="299.50382" x2="139.01517" y1="298.50383" x1="111.68208" stroke-width="10" stroke="#e2e8f0" fill="none"/>
  <line id="svg_18" y2="321.50362" x2="149.34841" y1="270.17075" x1="151.34839" stroke-width="10" stroke="#e2e8f0" fill="none"/>
  <line id="svg_19" y2="281.50398" x2="133.34855" y1="272.17073" x1="133.68188" stroke-width="10" stroke="#e2e8f0" fill="none"/>
  <line id="svg_20" y2="290.83723" x2="222.68109" y1="272.17073" x1="223.34775" stroke-width="10" stroke="#e2e8f0" fill="none"/>
  <line id="svg_21" y2="303.17045" x2="244.01423" y1="302.17046" x1="216.68114" stroke-width="10" stroke="#e2e8f0" fill="none"/>
  <line id="svg_22" y2="325.17025" x2="254.34747" y1="273.83738" x1="256.34745" stroke-width="10" stroke="#e2e8f0" fill="none"/>
  <line id="svg_23" y2="285.17061" x2="238.34761" y1="275.83736" x1="238.68094" stroke-width="10" stroke="#e2e8f0" fill="none"/>
  <line id="svg_24" y2="337.83681" x2="166.68159" y1="319.17031" x1="167.34825" stroke-width="10" stroke="#e2e8f0" fill="none"/>
  <line id="svg_25" y2="350.17003" x2="188.01473" y1="349.17004" x1="160.68164" stroke-width="10" stroke="#e2e8f0" fill="none"/>
  <line id="svg_26" y2="372.16983" x2="198.6813" y1="320.83696" x1="200.68128" stroke-width="10" stroke="#e2e8f0" fill="none"/>
  <line id="svg_27" y2="332.17019" x2="182.34811" y1="322.83694" x1="182.68145" stroke-width="10" stroke="#e2e8f0" fill="none"/>
 </g>
</svg>