<svg width="400.00000000000006" height="600" xmlns="http://www.w3.org/2000/svg">
 <g id="Layer_1">
  <title>Layer 1</title>
  <rect transform="rotate(2 182.356 315.429)" rx="13" id="svg_29" height="453" width="234" y="88.92889" x="65.35647" stroke="#e2e8f0" fill="none"/>
  <rect transform="rotate(2 170.69 305.762)" rx="13" id="svg_28" height="453" width="234" y="79.26231" x="53.68991" stroke="#e2e8f0" fill="none"/>
  <rect transform="rotate(2 159.69 294.429)" fill-opacity="0.6" rx="13" id="svg_1" height="453" width="234" y="67.92907" x="42.69" stroke="#e2e8f0" fill="#e2e8f0"/>
  <rect transform="rotate(2 159.42 288.929)" rx="6" id="svg_2" height="170" width="170" y="203.92907" x="74.41998" stroke="#e2e8f0" fill="#fff"/>
  <rect transform="rotate(2 107.682 234.004)" stroke-width="10" id="svg_3" height="40" width="40" y="214.00444" x="87.68227" stroke="#e2e8f0" fill="#fff"/>
  <rect transform="rotate(2 213.015 238.338)" stroke-width="10" id="svg_4" height="40" width="40" y="218.33773" x="193.01466" stroke="#e2e8f0" fill="#fff"/>
  <rect transform="rotate(2 104.682 340.67)" stroke-width="10" id="svg_5" height="40" width="40" y="320.67015" x="84.6823" stroke="#e2e8f0" fill="#fff"/>
  <rect transform="rotate(2 210.348 344.337)" stroke-width="10" id="svg_6" height="40" width="40" y="324.33679" x="190.34802" stroke="#e2e8f0" fill="#fff"/>
  <line id="svg_7" y2="228.67097" x2="142.68178" y1="210.00447" x1="143.34844" stroke-width="10" stroke="#e2e8f0" fill="none"/>
  <line id="svg_9" y2="241.0042" x2="164.01492" y1="240.00421" x1="136.68183" stroke-width="10" stroke="#e2e8f0" fill="none"/>
  <line id="svg_10" y2="263.004" x2="174.34816" y1="211.67113" x1="176.34814" stroke-width="10" stroke="#e2e8f0" fill="none"/>
  <line id="svg_11" y2="223.00436" x2="158.3483" y1="213.67111" x1="158.68163" stroke-width="10" stroke="#e2e8f0" fill="none"/>
  <line id="svg_12" y2="279.67052" x2="140.6818" y1="261.00402" x1="141.34846" stroke-width="10" stroke="#e2e8f0" fill="none"/>
  <line id="svg_13" y2="292.00374" x2="162.01494" y1="291.00375" x1="134.68185" stroke-width="10" stroke="#e2e8f0" fill="none"/>
  <line id="svg_14" y2="314.00354" x2="172.34818" y1="262.67067" x1="174.34816" stroke-width="10" stroke="#e2e8f0" fill="none"/>
  <line id="svg_15" y2="274.0039" x2="156.34832" y1="264.67065" x1="156.68165" stroke-width="10" stroke="#e2e8f0" fill="none"/>
  <line id="svg_16" y2="279.67052" x2="89.34892" y1="261.00402" x1="90.01558" stroke-width="10" stroke="#e2e8f0" fill="none"/>
  <line id="svg_17" y2="292.00374" x2="110.68206" y1="291.00375" x1="83.34898" stroke-width="10" stroke="#e2e8f0" fill="none"/>
  <line id="svg_18" y2="314.00354" x2="121.01531" y1="262.67067" x1="123.01529" stroke-width="10" stroke="#e2e8f0" fill="none"/>
  <line id="svg_19" y2="274.0039" x2="105.01545" y1="264.67065" x1="105.34878" stroke-width="10" stroke="#e2e8f0" fill="none"/>
  <line id="svg_20" y2="283.33715" x2="194.34799" y1="264.67065" x1="195.01465" stroke-width="10" stroke="#e2e8f0" fill="none"/>
  <line id="svg_21" y2="295.67037" x2="215.68113" y1="294.67038" x1="188.34804" stroke-width="10" stroke="#e2e8f0" fill="none"/>
  <line id="svg_22" y2="317.67018" x2="226.01437" y1="266.3373" x1="228.01435" stroke-width="10" stroke="#e2e8f0" fill="none"/>
  <line id="svg_23" y2="277.67053" x2="210.01451" y1="268.33728" x1="210.34784" stroke-width="10" stroke="#e2e8f0" fill="none"/>
  <line id="svg_24" y2="330.33673" x2="138.34849" y1="311.67023" x1="139.01515" stroke-width="10" stroke="#e2e8f0" fill="none"/>
  <line id="svg_25" y2="342.66995" x2="159.68163" y1="341.66996" x1="132.34854" stroke-width="10" stroke="#e2e8f0" fill="none"/>
  <line id="svg_26" y2="364.66976" x2="170.3482" y1="313.33688" x1="172.34818" stroke-width="10" stroke="#e2e8f0" fill="none"/>
  <line id="svg_27" y2="324.67011" x2="154.01501" y1="315.33686" x1="154.34834" stroke-width="10" stroke="#e2e8f0" fill="none"/>
 </g>
</svg>